<mxfile host="app.diagrams.net" modified="2023-03-20T14:59:58.109Z" agent="5.0 (Windows NT 10.0; Win64; x64) AppleWebKit/537.36 (KHTML, like Gecko) Chrome/111.0.0.0 Safari/537.36" etag="toIIXO-lpCYAZ7wgCmga" version="21.0.8" type="github">
  <diagram name="Page-1" id="WbfV39Qpw7QGnPIkNJ-T">
    <mxGraphModel dx="4497" dy="2560" grid="0" gridSize="10" guides="1" tooltips="1" connect="1" arrows="1" fold="1" page="0" pageScale="1" pageWidth="827" pageHeight="1169" math="0" shadow="0">
      <root>
        <mxCell id="0" />
        <mxCell id="1" parent="0" />
        <mxCell id="M7ZBXPqST69hyFWzJtZV-1" value="" style="rounded=0;whiteSpace=wrap;html=1;sketch=1;hachureGap=4;jiggle=2;curveFitting=1;fontFamily=Architects Daughter;fontSource=https%3A%2F%2Ffonts.googleapis.com%2Fcss%3Ffamily%3DArchitects%2BDaughter;fontSize=20;strokeWidth=2;" vertex="1" parent="1">
          <mxGeometry x="-334" y="-129" width="2235" height="2045" as="geometry" />
        </mxCell>
        <mxCell id="M7ZBXPqST69hyFWzJtZV-2" value="Droplinked-Casper Payment for unrecorded-products" style="text;html=1;align=center;verticalAlign=middle;resizable=0;points=[];autosize=1;strokeColor=none;fillColor=none;fontSize=51;fontFamily=Architects Daughter;fontStyle=1" vertex="1" parent="1">
          <mxGeometry x="130.5" y="-241" width="1306" height="73" as="geometry" />
        </mxCell>
      </root>
    </mxGraphModel>
  </diagram>
</mxfile>
